{"title":"47 Ronin 2013 BDRip 1080p HYPERHD.mkv","uid":9796417,"size":10126347844,"categoryP":"video","categoryS":"hd___movies","magnet":"?xt=urn:btih:370635f91375b9e8a7e2035649d8bad238227fa1&amp;dn=47+Ronin+2013+BDRip+1080p+HYPERHD.mkv&amp;tr=udp%3A%2F%2Ftracker.openbittorrent.com%3A80&amp;tr=udp%3A%2F%2Fopen.demonii.com%3A1337&amp;tr=udp%3A%2F%2Ftracker.coppersurfer.tk%3A6969&amp;tr=udp%3A%2F%2Fexodus.desync.com%3A6969","seeders":1,"leechers":0,"uploader":"ABSTAIN","files":1,"time":1395325359,"description":"General\nUnique ID                      : 192990847265125798700236398688528172853 (0x9130AF679126905FB48A732E00470735)\nComplete name                  : D:47 Ronin 2013 BDRip 1080p HYPERHD.mkv\nFormat                         : Matroska\nFormat version                 : Version 4 / Version 2\nFile size                      : 9.43 GiB\nDuration                       : 1h 58mn\nOverall bit rate               : 11.4 Mbps\nMovie name                     : 47 Ronin 2013 BDRip 1080p HYPERHD\nEncoded date                   : UTC 2014-03-20 12:26:05\nWriting application            : mkvmerge v6.8.0 ('Theme for Great Cities') 64bit built on Mar  2 2014 21:34:26\nWriting library                : libebml v1.3.0 + libmatroska v1.4.1\nAttachment                     : Yes\n\nVideo\nID                             : 1\nFormat                         : AVC\nFormat/Info                    : Advanced Video Codec\nFormat profile                 : &lt;a class=&quot;__cf_email__&quot; href=&quot;/cdn-cgi/l/email-protection&quot; data-cfemail=&quot;622a0b050a222e564c53&quot;&gt;[email&amp;#160;protected]&lt;/a&gt;&lt;script cf-hash='f9e31' type=&quot;text/javascript&quot;&gt;\n/* &lt;![CDATA[ */!function(){try{var t=&quot;currentScript&quot;in document?document.currentScript:function(){for(var t=document.getElementsByTagName(&quot;script&quot;),e=t.length;e--;)if(t[e].getAttribute(&quot;cf-hash&quot;))return t[e]}();if(t&amp;&amp;t.previousSibling){var e,r,n,i,c=t.previousSibling,a=c.getAttribute(&quot;data-cfemail&quot;);if(a){for(e=&quot;&quot;,r=parseInt(a.substr(0,2),16),n=2;a.length-n;n+=2)i=parseInt(a.substr(n,2),16)^r,e+=String.fromCharCode(i);e=document.createTextNode(e),c.parentNode.replaceChild(e,c)}}}catch(u){}}();/* ]]&gt; */&lt;/script&gt;\nFormat settings, CABAC         : Yes\nFormat settings, ReFrames      : 5 frames\nCodec ID                       : V_MPEG4/ISO/AVC\nDuration                       : 1h 58mn\nBit rate                       : 9 032 Kbps\nWidth                          : 1 920 pixels\nHeight                         : 800 pixels\nDisplay aspect ratio           : 2.40:1\nFrame rate mode                : Constant\nFrame rate                     : 23.976 fps\nColor space                    : YUV\nChroma subsampling             : 4:2:0\nBit depth                      : 8 bits\nScan type                      : Progressive\nBits/(Pixel*Frame)             : 0.245\nStream size                    : 7.30 GiB (77%)\nTitle                          : 47 Ronin 2013 BDRip 1080p HYPERHD\nWriting library                : x264 core 140 r2377 1ca7bb9\nEncoding settings              : cabac=1 / ref=5 / deblock=1:0:0 / analyse=0x3:0x133 / me=umh / subme=7 / psy=1 / psy_rd=1.00:0.00 / mixed_ref=1 / me_range=16 / chroma_me=1 / trellis=1 / 8x8dct=1 / cqm=0 / deadzone=21,11 / fast_pskip=0 / chroma_qp_offset=-2 / threads=18 / lookahead_threads=3 / sliced_threads=0 / nr=0 / decimate=1 / interlaced=0 / bluray_compat=0 / constrained_intra=0 / bframes=3 / b_pyramid=2 / b_adapt=1 / b_bias=0 / direct=1 / weightb=1 / open_gop=0 / weightp=2 / keyint=250 / keyint_min=23 / scenecut=40 / intra_refresh=0 / rc_lookahead=40 / rc=2pass / mbtree=1 / bitrate=9032 / ratetol=1.0 / qcomp=0.60 / qpmin=0 / qpmax=69 / qpstep=4 / cplxblur=20.0 / qblur=0.5 / ip_ratio=1.40 / aq=1:1.00\nLanguage                       : English\nDefault                        : Yes\nForced                         : No\n\nAudio #1\nID                             : 2\nFormat                         : AC-3\nFormat/Info                    : Audio Coding 3\nMode extension                 : CM (complete main)\nFormat settings, Endianness    : Big\nCodec ID                       : A_AC3\nDuration                       : 1h 58mn\nBit rate mode                  : Constant\nBit rate                       : 192 Kbps\nChannel count                  : 2 channels\nChannel positions              : Front: L R\nSampling rate                  : 48.0 KHz\nBit depth                      : 16 bits\nCompression mode               : Lossy\nStream size                    : 163 MiB (2%)\nTitle                          : Dub TS\nLanguage                       : Russian\nDefault                        : Yes\nForced                         : No\n\nAudio #2\nID                             : 3\nFormat                         : DTS\nFormat/Info                    : Digital Theater Systems\nMode                           : 16\nFormat settings, Endianness    : Big\nCodec ID                       : A_DTS\nDuration                       : 1h 58mn\nBit rate mode                  : Constant\nBit rate                       : 1 509 Kbps\nChannel count                  : 6 channels\nChannel positions              : Front: L C R, Side: L R, LFE\nSampling rate                  : 48.0 KHz\nBit depth                      : 24 bits\nCompression mode               : Lossy\nStream size                    : 1.25 GiB (13%)\nTitle                          : Original\nLanguage                       : English\nDefault                        : No\nForced                         : No\n\nAudio #3\nID                             : 4\nFormat                         : AC-3\nFormat/Info                    : Audio Coding 3\nMode extension                 : CM (complete main)\nFormat settings, Endianness    : Big\nCodec ID                       : A_AC3\nDuration                       : 1h 58mn\nBit rate mode                  : Constant\nBit rate                       : 640 Kbps\nChannel count                  : 6 channels\nChannel positions              : Front: L C R, Side: L R, LFE\nSampling rate                  : 48.0 KHz\nBit depth                      : 16 bits\nCompression mode               : Lossy\nStream size                    : 543 MiB (6%)\nTitle                          : Original\nLanguage                       : English\nDefault                        : No\nForced                         : No\n\nMenu\n00:00:00.000                   : en:00:00:00.000\n00:04:27.559                   : en:00:04:27.559\n00:11:12.088                   : en:00:11:12.088\n00:16:27.820                   : en:00:16:27.820\n00:20:11.836                   : en:00:20:11.836\n00:26:52.319                   : en:00:26:52.319\n00:31:02.944                   : en:00:31:02.944\n00:36:10.627                   : en:00:36:10.627\n00:43:36.614                   : en:00:43:36.614\n00:50:14.511                   : en:00:50:14.511\n00:54:59.421                   : en:00:54:59.421\n00:59:54.049                   : en:00:59:54.049\n01:09:57.735                   : en:01:09:57.735\n01:13:59.018                   : en:01:13:59.018\n01:19:12.247                   : en:01:19:12.247\n01:24:17.386                   : en:01:24:17.386\n01:33:00.825                   : en:01:33:00.825\n01:38:55.555                   : en:01:38:55.555\n01:44:41.609                   : en:01:44:41.609\n01:48:38.303                   : en:01:48:38.303","torrent":{"xt":"urn:btih:370635f91375b9e8a7e2035649d8bad238227fa1","amp;dn":"47+Ronin+2013+BDRip+1080p+HYPERHD.mkv","amp;tr":["udp%3A%2F%2Ftracker.openbittorrent.com%3A80","udp%3A%2F%2Fopen.demonii.com%3A1337","udp%3A%2F%2Ftracker.coppersurfer.tk%3A6969","udp%3A%2F%2Fexodus.desync.com%3A6969"],"infoHash":"370635f91375b9e8a7e2035649d8bad238227fa1","infoHashBuffer":{"type":"Buffer","data":[55,6,53,249,19,117,185,232,167,226,3,86,73,216,186,210,56,34,127,161]},"announce":[],"urlList":[]}}